# xmcd
#
# Track frame offsets:
#	150
#	20080
#	43513
#	66603
#	90782
#	121114
#	143209
#	170958
#	199782
#	222653
#	244887
#	274422
#	290789
#
# Disc length: 4089 seconds
#
# Revision: 1
# Processed by: cddbd v1.5.2PL0 Copyright (c) Steve Scherf et al.
# Submitted via: audiograbber 1.83.01
#
DISCID=d60ff70d
DTITLE=Rocky Jackson - Squeeze Here
DYEAR=1900
DGENRE=Blues
TTITLE0=Every Woman Got It
TTITLE1=It Must Be Voodoo
TTITLE2=Let's Buzz
TTITLE3=Blues For Texas
TTITLE4=Back Door Man
TTITLE5=Black and Blue
TTITLE6=What Kind of Justice Could This Be?
TTITLE7=Leavin' Mississippi
TTITLE8=Treats Me Like a Dog
TTITLE9=Evil Personified
TTITLE10=The Same Thing
TTITLE11=No More Lovesick Blues
TTITLE12=What Was She Thinkin'?
EXTD=
EXTT0=
EXTT1=
EXTT2=
EXTT3=
EXTT4=
EXTT5=
EXTT6=
EXTT7=
EXTT8=
EXTT9=
EXTT10=
EXTT11=
EXTT12=
PLAYORDER=
